<?xml version="1.0" encoding="UTF-8" standalone="no"?>
<!-- Created with Inkscape (http://www.inkscape.org/) -->

<svg
   xmlns:dc="http://purl.org/dc/elements/1.1/"
   xmlns:cc="http://creativecommons.org/ns#"
   xmlns:rdf="http://www.w3.org/1999/02/22-rdf-syntax-ns#"
   xmlns:svg="http://www.w3.org/2000/svg"
   xmlns="http://www.w3.org/2000/svg"
   xmlns:sodipodi="http://sodipodi.sourceforge.net/DTD/sodipodi-0.dtd"
   xmlns:inkscape="http://www.inkscape.org/namespaces/inkscape"
   width="210mm"
   height="297mm"
   viewBox="0 0 210 297"
   version="1.1"
   id="svg8"
   inkscape:version="0.92.3 (2405546, 2018-03-11)"
   sodipodi:docname="gusvienna-logo.svg">
  <defs
     id="defs2" />
  <sodipodi:namedview
     id="base"
     pagecolor="#ffffff"
     bordercolor="#666666"
     borderopacity="1.0"
     inkscape:pageopacity="0.0"
     inkscape:pageshadow="2"
     inkscape:zoom="0.35"
     inkscape:cx="-2029.72"
     inkscape:cy="856.51456"
     inkscape:document-units="mm"
     inkscape:current-layer="layer1"
     showgrid="false"
     inkscape:window-width="3840"
     inkscape:window-height="2019"
     inkscape:window-x="3187"
     inkscape:window-y="-13"
     inkscape:window-maximized="1">
    <inkscape:grid
       type="xygrid"
       id="grid838" />
  </sodipodi:namedview>
  <metadata
     id="metadata5">
    <rdf:RDF>
      <cc:Work
         rdf:about="">
        <dc:format>image/svg+xml</dc:format>
        <dc:type
           rdf:resource="http://purl.org/dc/dcmitype/StillImage" />
        <dc:title></dc:title>
      </cc:Work>
    </rdf:RDF>
  </metadata>
  <g
     inkscape:label="Layer 1"
     inkscape:groupmode="layer"
     id="layer1">
    <g
       id="g846"
       transform="matrix(1.233234,0,0,1.233234,982.63479,20.770217)">
      <path
         inkscape:connector-curvature="0"
         id="path826"
         d="m -722.63269,80.314022 h 12.33148 v 11.481025 h -11.57552 c 0,0 -0.40161,-2.504091 -0.63783,-6.354723 -0.23624,-3.850632 -0.11813,-5.126302 -0.11813,-5.126302 z"
         style="fill:#f08080;stroke:none;stroke-width:0.26458332px;stroke-linecap:butt;stroke-linejoin:miter;stroke-opacity:1" />
      <path
         sodipodi:nodetypes="cccssc"
         inkscape:connector-curvature="0"
         id="path828"
         d="m -721.16801,95.338574 h 10.79592 v 18.591706 c 0,0 -3.36508,-1.15815 -6.16572,-5.69327 -1.36538,-2.21098 -2.79031,-5.94035 -3.73253,-9.071426 -0.73091,-2.428863 -0.89767,-3.82701 -0.89767,-3.82701 z"
         style="fill:#f08080;stroke:none;stroke-width:0.26458332px;stroke-linecap:butt;stroke-linejoin:miter;stroke-opacity:1" />
      <path
         style="fill:#f08080;stroke:none;stroke-width:0.26458332px;stroke-linecap:butt;stroke-linejoin:miter;stroke-opacity:1"
         d="m -694.50258,80.314022 h -12.33148 v 11.481025 h 11.57552 c 0,0 0.40161,-2.504091 0.63783,-6.354723 0.23624,-3.850632 0.11813,-5.126302 0.11813,-5.126302 z"
         id="path830"
         inkscape:connector-curvature="0" />
      <path
         style="fill:#f08080;stroke:none;stroke-width:0.26458332px;stroke-linecap:butt;stroke-linejoin:miter;stroke-opacity:1"
         d="m -695.96726,95.338574 h -10.79592 v 18.591706 c 0,0 3.36508,-1.15815 6.16572,-5.69327 1.36538,-2.21098 2.79031,-5.94035 3.73253,-9.071426 0.73091,-2.428863 0.89767,-3.82701 0.89767,-3.82701 z"
         id="path832"
         inkscape:connector-curvature="0"
         sodipodi:nodetypes="cccssc" />
    </g>
    <path
       sodipodi:nodetypes="scccsccss"
       inkscape:connector-curvature="0"
       id="path863"
       d="m 72.154809,135.73587 c 0,-16.52055 6.0045,-21.77909 9.15126,-24.82753 3.14679,-3.04843 7.17015,-5.74462 8.05517,-4.24498 0.88503,1.49963 -3.13449,3.31885 -5.05202,5.38392 -1.91759,2.06508 -7.80549,7.90382 -8.34634,23.49018 -0.54085,15.58634 7.35067,25.54294 10.52203,28.00134 3.17135,2.45841 3.88122,3.12219 3.28505,3.8044 -0.59618,0.68222 -3.23939,1.10225 -9.54818,-5.86021 -5.9682,-6.58657 -8.06697,-17.01513 -8.06697,-25.74712 z"
       style="fill:#808080;stroke:none;stroke-width:0.19469659px;stroke-linecap:butt;stroke-linejoin:miter;stroke-opacity:1" />
    <path
       style="fill:#808080;stroke:none;stroke-width:0.19469659px;stroke-linecap:butt;stroke-linejoin:miter;stroke-opacity:1"
       d="m 145.52491,135.73587 c 0,-16.52055 -6.0045,-21.77909 -9.15126,-24.82753 -3.14679,-3.04843 -7.17015,-5.74462 -8.05517,-4.24498 -0.88503,1.49963 3.13449,3.31885 5.05202,5.38392 1.91759,2.06508 7.80549,7.90382 8.34634,23.49018 0.54085,15.58634 -7.35067,25.54294 -10.52203,28.00134 -3.17135,2.45841 -3.88122,3.12219 -3.28505,3.8044 0.59618,0.68222 3.23939,1.10225 9.54818,-5.86021 5.9682,-6.58657 8.06697,-17.01513 8.06697,-25.74712 z"
       id="path865"
       inkscape:connector-curvature="0"
       sodipodi:nodetypes="scccsccss" />
  </g>
</svg>
