<svg xmlns="http://www.w3.org/2000/svg" viewBox="0 0 24 24"><path d="M-722.633 80.314h12.332v11.481h-11.576s-.401-2.504-.638-6.355c-.236-3.85-.118-5.126-.118-5.126M-721.168 95.339h10.796v18.591s-3.365-1.158-6.166-5.693c-1.365-2.211-2.79-5.94-3.732-9.071-.731-2.43-.898-3.827-.898-3.827M-694.503 80.314h-12.331v11.481h11.575s.402-2.504.638-6.355c.237-3.85.118-5.126.118-5.126M-695.967 95.339h-10.796v18.591s3.365-1.158 6.166-5.693c1.365-2.211 2.79-5.94 3.732-9.071.731-2.43.898-3.827.898-3.827" style="fill:#f08080;stroke:none;stroke-width:.26458332px;stroke-linecap:butt;stroke-linejoin:miter;stroke-opacity:1" transform="translate(293.146 -24.921)scale(.3967)"/><path d="M.272 12.06c0-5.314 1.932-7.006 2.944-7.986 1.012-.981 2.306-1.848 2.591-1.366.285.483-1.008 1.068-1.625 1.732s-2.51 2.542-2.685 7.556c-.174 5.014 2.365 8.216 3.385 9.007s1.248 1.005 1.056 1.224-1.042.355-3.07-1.885C.947 18.223.271 14.869.271 12.06M23.873 12.06c0-5.314-1.931-7.006-2.944-7.986-1.012-.981-2.306-1.848-2.59-1.366-.285.483 1.008 1.068 1.624 1.732s2.511 2.542 2.685 7.556-2.364 8.216-3.384 9.007-1.249 1.005-1.057 1.224 1.042.355 3.071-1.885c1.92-2.119 2.595-5.473 2.595-8.282" style="fill:gray;stroke:none;stroke-width:.06262808px;stroke-linecap:butt;stroke-linejoin:miter;stroke-opacity:1"/></svg>